<mxfile host="Electron" agent="Mozilla/5.0 (X11; Linux x86_64) AppleWebKit/537.36 (KHTML, like Gecko) draw.io/24.7.8 Chrome/128.0.6613.36 Electron/32.0.1 Safari/537.36" version="24.7.8">
  <diagram name="PÃ¡gina-1" id="F2QQGBgR1vt8ZhgaDvgS">
    <mxGraphModel dx="1933" dy="1681" grid="1" gridSize="10" guides="1" tooltips="1" connect="1" arrows="1" fold="1" page="1" pageScale="1" pageWidth="827" pageHeight="1169" math="0" shadow="0">
      <root>
        <mxCell id="0" />
        <mxCell id="1" parent="0" />
        <mxCell id="K0wJUaHzuc0rc1vvCCCn-14" value="" style="edgeStyle=orthogonalEdgeStyle;rounded=0;orthogonalLoop=1;jettySize=auto;html=1;" edge="1" parent="1" source="K0wJUaHzuc0rc1vvCCCn-1" target="K0wJUaHzuc0rc1vvCCCn-4">
          <mxGeometry relative="1" as="geometry" />
        </mxCell>
        <mxCell id="K0wJUaHzuc0rc1vvCCCn-15" value="" style="edgeStyle=orthogonalEdgeStyle;rounded=0;orthogonalLoop=1;jettySize=auto;html=1;" edge="1" parent="1" source="K0wJUaHzuc0rc1vvCCCn-1" target="K0wJUaHzuc0rc1vvCCCn-2">
          <mxGeometry relative="1" as="geometry" />
        </mxCell>
        <mxCell id="K0wJUaHzuc0rc1vvCCCn-16" value="" style="edgeStyle=orthogonalEdgeStyle;rounded=0;orthogonalLoop=1;jettySize=auto;html=1;" edge="1" parent="1" source="K0wJUaHzuc0rc1vvCCCn-1" target="K0wJUaHzuc0rc1vvCCCn-5">
          <mxGeometry relative="1" as="geometry" />
        </mxCell>
        <mxCell id="K0wJUaHzuc0rc1vvCCCn-1" value="usuario" style="ellipse;whiteSpace=wrap;html=1;" vertex="1" parent="1">
          <mxGeometry x="70" y="90" width="120" height="80" as="geometry" />
        </mxCell>
        <mxCell id="K0wJUaHzuc0rc1vvCCCn-2" value="&lt;u&gt;nombre_usuario&lt;/u&gt;" style="ellipse;whiteSpace=wrap;html=1;" vertex="1" parent="1">
          <mxGeometry x="70" y="-20" width="120" height="80" as="geometry" />
        </mxCell>
        <mxCell id="K0wJUaHzuc0rc1vvCCCn-3" value="password" style="ellipse;whiteSpace=wrap;html=1;" vertex="1" parent="1">
          <mxGeometry x="220" y="-20" width="120" height="80" as="geometry" />
        </mxCell>
        <mxCell id="K0wJUaHzuc0rc1vvCCCn-4" value="nombre" style="ellipse;whiteSpace=wrap;html=1;" vertex="1" parent="1">
          <mxGeometry x="230" y="80" width="120" height="80" as="geometry" />
        </mxCell>
        <mxCell id="K0wJUaHzuc0rc1vvCCCn-5" value="foto" style="ellipse;whiteSpace=wrap;html=1;" vertex="1" parent="1">
          <mxGeometry x="-80" y="90" width="120" height="80" as="geometry" />
        </mxCell>
        <mxCell id="K0wJUaHzuc0rc1vvCCCn-11" style="edgeStyle=orthogonalEdgeStyle;rounded=0;orthogonalLoop=1;jettySize=auto;html=1;exitX=0.5;exitY=0;exitDx=0;exitDy=0;entryX=0.5;entryY=1;entryDx=0;entryDy=0;" edge="1" parent="1" source="K0wJUaHzuc0rc1vvCCCn-12" target="K0wJUaHzuc0rc1vvCCCn-1">
          <mxGeometry relative="1" as="geometry" />
        </mxCell>
        <mxCell id="K0wJUaHzuc0rc1vvCCCn-21" style="edgeStyle=orthogonalEdgeStyle;rounded=0;orthogonalLoop=1;jettySize=auto;html=1;" edge="1" parent="1" source="K0wJUaHzuc0rc1vvCCCn-22" target="K0wJUaHzuc0rc1vvCCCn-20">
          <mxGeometry relative="1" as="geometry" />
        </mxCell>
        <mxCell id="K0wJUaHzuc0rc1vvCCCn-27" style="edgeStyle=orthogonalEdgeStyle;rounded=0;orthogonalLoop=1;jettySize=auto;html=1;" edge="1" parent="1" source="K0wJUaHzuc0rc1vvCCCn-6" target="K0wJUaHzuc0rc1vvCCCn-26">
          <mxGeometry relative="1" as="geometry" />
        </mxCell>
        <mxCell id="K0wJUaHzuc0rc1vvCCCn-6" value="suscriptor" style="ellipse;whiteSpace=wrap;html=1;" vertex="1" parent="1">
          <mxGeometry x="70" y="340" width="120" height="80" as="geometry" />
        </mxCell>
        <mxCell id="K0wJUaHzuc0rc1vvCCCn-13" value="" style="edgeStyle=orthogonalEdgeStyle;rounded=0;orthogonalLoop=1;jettySize=auto;html=1;exitX=0.5;exitY=0;exitDx=0;exitDy=0;entryX=0.5;entryY=1;entryDx=0;entryDy=0;" edge="1" parent="1" source="K0wJUaHzuc0rc1vvCCCn-6" target="K0wJUaHzuc0rc1vvCCCn-12">
          <mxGeometry relative="1" as="geometry">
            <mxPoint x="130" y="300" as="sourcePoint" />
            <mxPoint x="130" y="170" as="targetPoint" />
          </mxGeometry>
        </mxCell>
        <mxCell id="K0wJUaHzuc0rc1vvCCCn-12" value="implementa" style="rhombus;whiteSpace=wrap;html=1;" vertex="1" parent="1">
          <mxGeometry x="90" y="200" width="80" height="80" as="geometry" />
        </mxCell>
        <mxCell id="K0wJUaHzuc0rc1vvCCCn-17" style="edgeStyle=orthogonalEdgeStyle;rounded=0;orthogonalLoop=1;jettySize=auto;html=1;exitX=1;exitY=0;exitDx=0;exitDy=0;entryX=0.025;entryY=0.613;entryDx=0;entryDy=0;entryPerimeter=0;" edge="1" parent="1" source="K0wJUaHzuc0rc1vvCCCn-1" target="K0wJUaHzuc0rc1vvCCCn-3">
          <mxGeometry relative="1" as="geometry">
            <Array as="points">
              <mxPoint x="172" y="80" />
              <mxPoint x="223" y="80" />
            </Array>
          </mxGeometry>
        </mxCell>
        <mxCell id="K0wJUaHzuc0rc1vvCCCn-18" value="1" style="text;html=1;align=center;verticalAlign=middle;resizable=0;points=[];autosize=1;strokeColor=none;fillColor=none;" vertex="1" parent="1">
          <mxGeometry x="135" y="168" width="30" height="30" as="geometry" />
        </mxCell>
        <mxCell id="K0wJUaHzuc0rc1vvCCCn-19" value="1" style="text;html=1;align=center;verticalAlign=middle;resizable=0;points=[];autosize=1;strokeColor=none;fillColor=none;" vertex="1" parent="1">
          <mxGeometry x="135" y="308" width="30" height="30" as="geometry" />
        </mxCell>
        <mxCell id="K0wJUaHzuc0rc1vvCCCn-20" value="suscripcion" style="ellipse;whiteSpace=wrap;html=1;" vertex="1" parent="1">
          <mxGeometry x="-230" y="340" width="120" height="80" as="geometry" />
        </mxCell>
        <mxCell id="K0wJUaHzuc0rc1vvCCCn-23" value="" style="edgeStyle=orthogonalEdgeStyle;rounded=0;orthogonalLoop=1;jettySize=auto;html=1;" edge="1" parent="1" source="K0wJUaHzuc0rc1vvCCCn-6" target="K0wJUaHzuc0rc1vvCCCn-22">
          <mxGeometry relative="1" as="geometry">
            <mxPoint x="70" y="380" as="sourcePoint" />
            <mxPoint x="-80" y="380" as="targetPoint" />
          </mxGeometry>
        </mxCell>
        <mxCell id="K0wJUaHzuc0rc1vvCCCn-22" value="realiza" style="rhombus;whiteSpace=wrap;html=1;" vertex="1" parent="1">
          <mxGeometry x="-40" y="340" width="80" height="80" as="geometry" />
        </mxCell>
        <mxCell id="K0wJUaHzuc0rc1vvCCCn-24" value="1" style="text;html=1;align=center;verticalAlign=middle;resizable=0;points=[];autosize=1;strokeColor=none;fillColor=none;" vertex="1" parent="1">
          <mxGeometry x="45" y="378" width="30" height="30" as="geometry" />
        </mxCell>
        <mxCell id="K0wJUaHzuc0rc1vvCCCn-25" value="N" style="text;html=1;align=center;verticalAlign=middle;resizable=0;points=[];autosize=1;strokeColor=none;fillColor=none;" vertex="1" parent="1">
          <mxGeometry x="-85" y="388" width="30" height="30" as="geometry" />
        </mxCell>
        <mxCell id="K0wJUaHzuc0rc1vvCCCn-26" value="cartera_monetaria" style="ellipse;whiteSpace=wrap;html=1;" vertex="1" parent="1">
          <mxGeometry x="340" y="338" width="120" height="80" as="geometry" />
        </mxCell>
        <mxCell id="K0wJUaHzuc0rc1vvCCCn-28" value="implementa" style="rhombus;whiteSpace=wrap;html=1;" vertex="1" parent="1">
          <mxGeometry x="220" y="340" width="80" height="80" as="geometry" />
        </mxCell>
      </root>
    </mxGraphModel>
  </diagram>
</mxfile>
